/* XPM */
static char *_1f8c7b0d8364837b8bc7b45429c45f4EqcGUdIxoUvt9XEI[] = {
/* columns rows colors chars-per-pixel */
"40 40 8 1 ",
"  c None",
". c #FF9800",
"X c #FFEB3B",
"o c #8BC34A",
"O c #9C27B0",
"+ c #FF4081",
"@ c #00BCD4",
"# c white",
/* pixels */
"                                        ",
"                                        ",
"                XXXXXXX                 ",
"             XXX+++++++++X              ",
"           XX+++.........+++            ",
"         XX++...O@@@@@@@O...++          ",
"        XX+..O@@@@@@@@@@@@@O..+         ",
"       X++.O@@@@@@@@@@@@@@@@@o.++       ",
"      X+@.O@@@@@@@@@@@@@@@@@@@o.X+      ",
"      +@.O@@@@@@@@@@@@@@@@@@@@@o.X+     ",
"     +X.O@@@@@@@@@@@@@@@@@@@@@@oO.X+    ",
"    X+.XO@@#@@@@@@@@@@@@@@@@@@@@oX.+    ",
"    +.oO@@##@@@@@@@@@@@@@@@@@@@@oOX.+   ",
"   X+.XO@@#@@@@@@@@@@@@@@@@@@@@@@oX.+   ",
"   +.oO@@#@@@@@@@@@@@@@@@#@@@@@@@oOX.+  ",
"   +.@O@##@@@@@@@@@@@@@@@##@@@@@@@oX.+  ",
"  X+.O@@#@@@@@@@#@@@@@@@@@##@@@@@@oO.+  ",
"  +.oO@@#@@@@@@@#@@@@@@@@@@#@@@@@@oOX.+ ",
"  +.oO@@#@@@@@@#@@@@@@@@@@@@@@@@@@oOX.+ ",
"  +.oO@@#@@@@@##@@@@@@@@@@@@@@@@@@oOX.+ ",
"  +.oO@@@@@@@@#@@@@@@@@@@@@@@@@@@@oOX.+ ",
"  +.oO@@@@@@@@#@@@@@@@@@@@@@@@@@@@oOX.+ ",
"  +.oO@@@@@@@@#@@@@@@@@@@@@@@@@@@@oOX.+ ",
"  +.oO@@@@@@@@@@@@@@@@@@@@@@@@@@@@oOX.+ ",
"  X+.o@@@@@@@@@@@@@@@@@@@@@@@@@@@oXO.+  ",
"   +.oO@@@@@@@@@@@@@@@@@@@@@@@@@@oOX.+  ",
"   +.@o@@@@@@@@@@@@@@@@@@@@@@@#@oXOX.+  ",
"   X+.oO@@@@@@@@@@@@@@@@@@@@@@#@oO@.+   ",
"    +.@o@@@@@@@@@@@@@@@@@@@@@##oXO@.+   ",
"    X+.oO@@@@@@@@@@@@@@@@@@@##@oOX.+    ",
"     +@.o@@@@@@@@@@@@@@@@@##@@oXO.X+    ",
"      +@.o@@@@@@@@@@@@@@@@#@@oXO.X+     ",
"      X+@.o@@@@@@@@@@@@@@@@@oXO.X+      ",
"       X++.oo@@@@@@@@@@@@@ooXO.++       ",
"        X@+..ooo@@@@@@@oooXO..+         ",
"         XX++...oooooooXO...++          ",
"           XX+++.........+++            ",
"             XXX+++++++++X              ",
"                XXXXXXX                 ",
"                                        "
};
