/* XPM */
static char *result[] = {
/* columns rows colors chars-per-pixel */
"40 40 6 1 ",
"  c black",
". c #357A37",
"X c #4CAF50",
"o c #008394",
"O c #00BCD4",
"+ c None",
/* pixels */
"++++++++++++++++++++++++++++++++++++++++",
"++++++++++++++++++++++++++++++++++++++++",
"++++++++++++++++++++++++++++++++++++++++",
"+++++++++++++++         ++++++++++++++++",
"++++++++++++    oOOoOOo    +++++++++++++",
"+++++++++    oOOooOoOooOOo    ++++++++++",
"++++++++  oOOooOO     OOooOOo   ++++++++",
"++++++  OOooOO    XXX    OOooOO  +++++++",
"+++++  oOOO    XXXXXXXXX    OOOo  ++++++",
"++++  OOo   XXXXXXXXXXXXXXX   oOO  +++++",
"++++ ooO  XXXXXXXXXXXXXXXXXXX  Ooo +++++",
"+++  Oo  XXXXXXXXXXXXXXXXXXXXX  oO  ++++",
"+++ oOO XXXXXXXXXXXXXXXXXXXXXXX OOo ++++",
"++  oO  XXXXXXXXXXXXXXXXXXXXXXX  Oo  +++",
"++ OOo XXXXXXXXXXXXXXXXXXXXXXXXX oOO +++",
"++ OO  XXXXX...XXXXXXXXXXXXXXXXX  OO +++",
"++ oo XXXXXXXXX.......XXXXXXXXXXX oo +++",
"++ OO XXXXXXXXXXXXXXXXXXXXXXXXXXX OO +++",
"++ OO XXXXXXXXXXXXXXXXXXXXXXXXXXX OO +++",
"++ oo XXXXXXXXXXXXXXXXXXXXXXXXXXX oo +++",
"++ OO XXXXXXXXXXXXXXXXXXXXXXXXXXX OO +++",
"++ OO XX..XXXXXXXXXXXXXXXXXXXXXXX OO +++",
"++ oo XXXXXXXXXXXXXXXXXXXXXXXXXXX oo +++",
"++ OO XXXXXXXXXXXXX.....XXX...XXX OO +++",
"++ OO XXXXXXXXXXXXXXXXXX...XX.XXX OO +++",
"++ oo XXXXXXXXXXXXXXXXXXXXXXXXXXX oo +++",
"++ OO XXXXXXXXXXXXXXXXXXXXXXXXXXX OO +++",
"++ OO XXXXXXXXXXXXXXXXXXXXXXXXXXX OO +++",
"++ oo XXXXXXXXXXXXXXXXXXXXXXXXXXX oo +++",
"++ OO XXXXXXXXXXXXXXXXXXXXXXXXXXX OO +++",
"++ OO XXXXXXXXXXXXXXXXXXXXXXXXXXX OO +++",
"++ oo XXXXXXXXXXXXXXXXXXXXXXXXXXX oo +++",
"++ OO X......X...XXXXXXXXXXXXXXXX OO +++",
"++ OO XXXXXX..XXXXXXXXXX.X...XXXX OO +++",
"++ oo XXXXXXXXXXXXXXXXXX..XXXXXXX oo +++",
"++ OO XXXXXXXXXXXXXXXXXXXXXXXXXXX OO +++",
"++ OO XXXXXXXXXXXXXXXXXXXXXXXXXXX OO +++",
"++ oo XXXXXXXXXXXXXXXXXXXXXXXXXXX oo +++",
"++ OO XXXXXXXXXXXXXXXXXXXXXXXXXXX OO +++",
"++ OO XXXXXXXXXXXXXXXXXXXXXXXXXXX OO +++"
};
