/* XPM */
static char *result[] = {
/* columns rows colors chars-per-pixel */
"40 40 6 1 ",
"  c black",
". c #A21445",
"X c #E91E63",
"o c #008394",
"O c #00BCD4",
"+ c None",
/* pixels */
"++++++++++++++++++++++++++++++++++++++++",
"++++++++++++++++++++++++++++++++++++++++",
"++++++++++++++++++++++++++++++++++++++++",
"+++++++++++++++         ++++++++++++++++",
"++++++++++++    oOOoOOo    +++++++++++++",
"+++++++++    oOOooOoOooOOo    ++++++++++",
"++++++++  oOOooOO     OOooOOo   ++++++++",
"++++++  OOooOO    XXX    OOooOO  +++++++",
"+++++  oOOO    XXXXXXXXX    OOOo  ++++++",
"++++  OOo   XXXXXXXXXXXXXXX   oOO  +++++",
"++++ ooO  XXXXXXXXXXXXXXXXXXX  Ooo +++++",
"+++  Oo  XXXXXXXXXXXXXXXXXXXXX  oO  ++++",
"+++ oOO XXXXXXXXXXXXXXXXXXXXXXX OOo ++++",
"++  oO  XXXXXXXXXXXXXXXXXXXXXXX  Oo  +++",
"++ OOo XXXXXXXXXXXXXXXXXXXXXXXXX oOO +++",
"++ OO  XXXXXXXXXXXXXXXXXXXXXXXXX  OO +++",
"++ oo XXXX.......XX.........XXXXX oo +++",
"++ OO XXXXXXXXXXX...XXXXXXXXXXXXX OO +++",
"++ OO XXXXXXXXXXXXXXXXXXXXXXXXXXX OO +++",
"++ oo XXXXXXXXXXXXXXXXXXXXXXXXXXX oo +++",
"++ OO XXXXXXXXXXXXXXXXXXXXXXXXXXX OO +++",
"++ OO XXXXXXXXXXXXXXXXXXXXXXXXXXX OO +++",
"++ oo XXXXXXXXXXXXXXXXXXXXXXXXXXX oo +++",
"++ OO XXXXXX......XXXXXXXXXXXXXXX OO +++",
"++ OO XXXXXXXXXXX......XXX...XXXX OO +++",
"++ oo XXXXXXXXXXXXXXXX....XXXXXXX oo +++",
"++ OO XXXXXXXXXXXXXXXXXXXXXXXXXXX OO +++",
"++ OO XXXXXXXXXXXXXXXXXXXXXXXXXXX OO +++",
"++ oo XXXXXXXXXXXX..XXXXXXXXXXXXX oo +++",
"++ OO XXXXXXXXXXXXXX...XXXXXXXXXX OO +++",
"++ OO XXXXXXXXXXXXXXXXXXXXXXXXXXX OO +++",
"++ oo XXXXXXXXXXXXXXXXXXXXXXXXXXX oo +++",
"++ OO XXXXXXXXXXXXXXXXXXXXXXXXXXX OO +++",
"++ OO XXXXXX......X.....XXXXXXXXX OO +++",
"++ oo XXXX..XXXXXX..XXXXXXXXXXXXX oo +++",
"++ OO XXXXXXXXXXXXXXXXXXXXXXXXXXX OO +++",
"++ OO XXXXXXXXXXXXXXXXXXXXXXXXXXX OO +++",
"++ oo XXXXXXXXXXXXXXXXXXXXXXXXXXX oo +++",
"++ OO XXXXXXXXXXXXXXXXXXXXXXXXXXX OO +++",
"++ OO XXXXXXXXXXXXXXXXXXXXXXXXXXX OO +++"
};
