/* XPM */
static char *result[] = {
/* columns rows colors chars-per-pixel */
"40 40 4 1 ",
"  c black",
". c #F44336",
"X c white",
"o c None",
/* pixels */
"oooooooooooooooooooooooooooooooooooooooo",
"oooooooooooooooooooooooooooooooooooooooo",
"oooooooooooooooo         ooooooooooooooo",
"ooooooooooooo               oooooooooooo",
"oooooooooo      XXXX.XXXX     oooooooooo",
"oooooooooo   XXXXXXX.XXXXXXX   ooooooooo",
"ooooooooo  XXXXXXXX...XXXXXXXX  oooooooo",
"oooooooo  XXXXXXXXX...XXXXXXXXX  ooooooo",
"ooooooo  XXXXXXXXX..X.XXXXXXXXXX  oooooo",
"oooooo  XXXXXXXXXX..X..XXXXXXXXXX  ooooo",
"ooooo  XXXXXXXXXX..XX..XXXXXXXXXXX  oooo",
"oooo  XXXXXXXXXXX..XXX..XXXXXXXXXXX  ooo",
"oooo  .............................   oo",
"ooo  XX...........................XX  oo",
"ooo  XX...XXXXXX..XXXXX..XXXXX..XXXX  oo",
"ooo  XXX...XXXX..XXXXXX..XXXX..XXXXX  oo",
"oo  XXXXXX..XXX..XXXXXXX.XX...XXXXXXX  o",
"oo  XXXXXXX..X..XXXXXXXX....XXXXXXXXX  o",
"oo  XXXXXXXX....XXXXXXXX...XXXXXXXXXX  o",
"oo  XXXXXXXXXX..XXXXXXX....XXXXXXXXXX  o",
"oo  XXXXXXXXX....XXXXX..X..XXXXXXXXXX  o",
"oo  XXXXXXXXX.XX..XXX..XX..XXXXXXXXXX  o",
"oo  XXXXXXXX..XXX.....XXXX..XXXXXXXXX  o",
"ooo  XXXXXXX..XXXX...XXXXX..XXXXXXXX  oo",
"ooo  XXXXXXX.XXXX..X..XXXXX.XXXXXXXX  oo",
"ooo  XXXXXX..XX...XXX...XXX..XXXXXXX  oo",
"oooo  XXXXX.XX..XXXXXX...XX..XXXXXX  ooo",
"oooo  XXXX..X..XXXXXXXXX..XX..XXXXX  ooo",
"ooooo  XXX....XXXXXXXXXXX..X..XXXX  oooo",
"oooooo  X...XXXXXXXXXXXXXX....XXX  ooooo",
"ooooooo  ..XXXXXXXXXXXXXXXXX...X  oooooo",
"oooooooo  XXXXXXXXXXXXXXXXXXX..  ooooooo",
"ooooooooo  XXXXXXXXXXXXXXXXXXX  oooooooo",
"oooooooooo   XXXXXXXXXXXXXXX   ooooooooo",
"ooooooooooo     XXXXXXXXX     oooooooooo",
"ooooooooooooo                ooooooooooo",
"oooooooooooooooo          oooooooooooooo",
"oooooooooooooooooooooooooooooooooooooooo",
"oooooooooooooooooooooooooooooooooooooooo",
"oooooooooooooooooooooooooooooooooooooooo"
};
