/* XPM */
static char *_8ebecc9fe24450dd4483dd6d619aa3880PaM9AhgcO3a5oJ[] = {
/* columns rows colors chars-per-pixel */
"40 40 6 1 ",
"  c None",
". c #E53935",
"X c #4CAF50",
"o c #FFEB3B",
"O c #00BCD4",
"+ c #EA80FC",
/* pixels */
"                                        ",
"                                        ",
"                                        ",
"                                        ",
"                                        ",
"                                        ",
"                                        ",
"                                        ",
"                                        ",
"                     ..............+    ",
"     OXo.+           OOOOOOOOOOOXo.+    ",
"     OXo.+                     OXo.+    ",
"     OXo.+                     OXo.+    ",
"     OXo.+                     OXo.+    ",
"     OXo.+                    OXoo.+    ",
"     OXo.+                   OXoo..+    ",
"     OXo.+                   Oo.++++    ",
"     OXo.+ OXo.+            OXo+        ",
"     OXo.+ OXo.+           OXo.+        ",
"     OXo.+ OXo.+          OXo.+         ",
"     OXo.++OXo.++         Oo.+          ",
"     OXo...OXo.+.        OXo.+          ",
"     OXXXXXXXo.+X       OXo.+           ",
"     OOOOOOOXo.+O      OXo.+            ",
"           OXo.+       Oo.+             ",
"           OXo.+      OXo.+             ",
"           OXo.+     OXo.+              ",
"           OXo.+     OXo.+              ",
"           OXo.+     OXo.+              ",
"           OXo.+     OXo...........+    ",
"           OXo.+     OOOOOOOOOOOXo.+    ",
"                                        ",
"                                        ",
"                                        ",
"                                        ",
"                                        ",
"                                        ",
"                                        ",
"                                        ",
"                                        "
};
