/* XPM */
static char *result[] = {
/* columns rows colors chars-per-pixel */
"40 40 4 1 ",
"  c black",
". c #A74466",
"X c #F06292",
"o c None",
/* pixels */
"oooooooooooooooooooooooooooooooooooooooo",
"oooooooooooooooooooooooooooooooooooooooo",
"oooooooooooooooooooooooooooooooooooooooo",
"oooooooooooooooooooooooooooooooooooooooo",
"oooooooooooooooooooooooooooooooooooooooo",
"oooooooooooooooooooooooooooooooooooooooo",
"oooooooo       oooooooooo       oooooooo",
"ooooooo  XXXXX  oooooooo  XXXXX  ooooooo",
"oooooo  XXXXXXXX  oooo  XXXXXXXX  oooooo",
"oooooo XX......XX  oo  XX......XX oooooo",
"oooooo X..XXXXXXXX oo XXXXXXXX..X oooooo",
"oooooo ..XXXXXXXXXX  XXXXXXXXXX.. oooooo",
"ooooo X.XX.....XXXX  XXXX.....XX.X ooooo",
"ooooo XXX..XXXXXXXXXXXXXXXXXX..XXX ooooo",
"ooooo XXX.X...XXXXXXXXXXXX...X.XXX ooooo",
"ooooo XXXXX.XXXXXXXXXXXXXXXX.XXXXX ooooo",
"ooooo XXXXXXXXXXXXXXXXXXXXXXXXXXXX ooooo",
"oooooo XXXXXXXXXXXXXXXXXXXXXXXXXX oooooo",
"oooooo XXXXXXXXXXXXXXXXXXXXXXXXXX oooooo",
"oooooo XXXXXXXXXXXXXXXXXXXXXXXXXX oooooo",
"ooooooo XXXXXXXXXXXXXXXXXXXXXXXX ooooooo",
"ooooooo XXXXXXXXXXXXXXXXXXXXXXXX ooooooo",
"oooooooo XXXXXXXXXXXXXXXXXXXXXX oooooooo",
"ooooooooo XXXXXXXXXXXXXXXXXXXX ooooooooo",
"ooooooooo XXXXXXXXXXXXXXXXXXXX ooooooooo",
"oooooooooo XXXXXXXXXXXXXXXXXX oooooooooo",
"ooooooooooo XXXXXXXXXXXXXXXX ooooooooooo",
"oooooooooooo XXXXXXXXXXXXXX oooooooooooo",
"ooooooooooooo XXXXXXXXXXXX ooooooooooooo",
"oooooooooooooo  XXXXXXXX  oooooooooooooo",
"ooooooooooooooo XXXXXXXX ooooooooooooooo",
"oooooooooooooooo XXXXXX oooooooooooooooo",
"ooooooooooooooooo XXXX ooooooooooooooooo",
"oooooooooooooooooo XX oooooooooooooooooo",
"oooooooooooooooooo    oooooooooooooooooo",
"ooooooooooooooooooo  ooooooooooooooooooo",
"oooooooooooooooooooooooooooooooooooooooo",
"oooooooooooooooooooooooooooooooooooooooo",
"oooooooooooooooooooooooooooooooooooooooo",
"oooooooooooooooooooooooooooooooooooooooo"
};
