/* XPM */
static char *bc63f592955d47968160474456aca7d1oKI0oXf1Msdu9GU3[] = {
/* columns rows colors chars-per-pixel */
"40 40 15 1 ",
"  c None",
". c black",
"X c #FF5722",
"o c #E91E63",
"O c #4CAF50",
"+ c #FF9800",
"@ c #FFEB3B",
"# c #673AB7",
"$ c #8E24AA",
"% c #F06292",
"& c #00BCD4",
"* c #FF80AB",
"= c #F48FB1",
"- c #F8BBD0",
"; c white",
/* pixels */
";..;;;;;;;;;;;.. .;.;;;;;;;;;;;;;;;;;;;;",
".@@.;;;;;;;...#. .;;...;;;;;;;;;;;;;;;;;",
";.@@.;;;;..#####.;;;.&&.;;;;;;;;;;;;;;;;",
";;.@@.;;;.-###-#.;;;.&&..;;;;;;;;;;;;;;;",
";;;.@@.;.---#---.;.;;.&&O.;;;;;;;;;;;;;;",
";;;..@@..------o.;*.;.OOO.;;;;;;;;;;;;;;",
";;.;.@@@@.-oo-oo.;*.;;.OO.;;;;;;;;;;;;;;",
";;.;;.@@@@.oooooo..;;;.OOO.;;;;;;;;;;;..",
";;;.;.@@@@@.oooo.;;;;;;.O@@..;;;;;;;;.;.",
";;;;.;.@@@@.o+oo.;;;;;;;.@@@@.;;;;;..;..",
";;;;;....@@.+++++.;;;;;;;.@@@.;;;..;;;;.",
";;;;;;.++..+++@+@@.;;;;;;.@@+.;..;;;;;;.",
";;;;;;.@++++@@@@@.;;;;;;;.@+++.;;;;;;;.;",
";;;;;;.@@@@@@@@O&&.;;;;;;.++..;;;;;;;.;;",
";;;;;;.O.O@OOOO&&...;;;;.;..;;;;;;;;.;;;",
";;;;;;..;.OOOO&..;;;;;;;;;.;;;;;;;;.;;;;",
";;;;;;;.;;.&O&.;.;;;;;;;;;;;;;;;;;..;;;;",
";;;;;;;;.;;.......;;.;;;;;;;;;;;;.oo.;;;",
";;;;;;;;;.;;.;....;.;;;;;;;;;;;;.oo...;;",
";;;;;;;;;;..;;....;;;;;.;;;;;;;.%%.;;;;;",
";;;;;;;;;;.;;;...;;;;;;.;;;;;;.%%%.;;;;;",
";;;;;;;;;.;;;;;.;;;;;;.;;;;;;;.%%##.;;;;",
";;;;;;;;.;; ;;;......;.XXXX;;..%#....;;;",
";;;;;;;.;;;;;;..=====.@@@@XX;;.##.;;;;;;",
";;;;;;;.;;;;;.=======.OOOO@X;;.###.;;;;;",
";;;;;;;.;;;;;.=.==.==.&&&OOX;;;.##.;;;;;",
";;;;;;;.;;;;;.======.O&$&&OX;;;.##.;;;;;",
";;;;;;;;.;;;.;......@O&$$&OXX;;.##.;;;;;",
";;;;;;;;;...;;.;;;;X@O&&$&O@X;;;.#.;;;;;",
";;;;;;;;;;;;;;;.;;;X@OO&$&O@X;;;..#.;;;;",
";;;;;;;;;;;;;;;.;;;X@@O&&&OXX;;;. ..;;;;",
";;;;;;;;;;;;;;;;.;;XX@OOOOXX;;;;;.;;;;;;",
";;;;;;;;;;;;;;;;.;;;XXXXXXX;;;;;;.;;;;;;",
";;;;;;;;;;;;;;;..;;;;;;;;;;;;;;;;;.;;;;;",
";;;;;;;;;;;;;;;.;;;;;.......;;;;;;.;;;;;",
";;;;;;;;;;;;;;.;;;;;..;;;;;..;;;;;;.;;;;",
";;;;;;;;;;;;;..;;;;.;;;;;;;;;..;;;;.;;;;",
";;;;;;;;;;;;;.;;;;.;;;;;;;;;;;..;;;;.;;;",
";;;;;;;;;;;;..;;..;;;;;;;;;;;;;..;;;.;;;",
";;;;;;;;;;;;.....;;;;;;;;;;;;;;;..;;.;;;"
};
