/* XPM */
static char *result[] = {
/* columns rows colors chars-per-pixel */
"40 40 14 1 ",
"  c black",
". c #FF5722",
"X c #E91E63",
"o c #4CAF50",
"O c #FF9800",
"+ c #FFEB3B",
"@ c #673AB7",
"# c #8E24AA",
"$ c #F06292",
"% c #00BCD4",
"& c #FF80AB",
"* c #F48FB1",
"= c #F8BBD0",
"- c None",
/* pixels */
"-  -----------  - - --------------------",
" ++ -------   @ - --   -----------------",
"- ++ ----  @@@@@ --- %% ----------------",
"-- ++ --- =@@@=@ --- %%  ---------------",
"--- ++ - ===@=== - -- %%o --------------",
"---  ++  ======X -& - ooo --------------",
"-- - ++++ =XX=XX -& -- oo --------------",
"-- -- ++++ XXXXXX  --- ooo -----------  ",
"--- - +++++ XXXX ------ o++  -------- - ",
"---- - ++++ XOXX ------- ++++ -----  -  ",
"-----    ++ OOOOO ------- +++ ---  ---- ",
"------ OO  OOO+O++ ------ ++O -  ------ ",
"------ +OOOO+++++ ------- +OOO ------- -",
"------ ++++++++o%% ------ OO  ------- --",
"------ o o+oooo%%   ---- -  -------- ---",
"------  - oooo%  --------- -------- ----",
"------- -- %o% - -----------------  ----",
"-------- --       -- ------------ XX ---",
"--------- -- -    - ------------ XX   --",
"----------  --    ----- ------- $$ -----",
"---------- ---   ------ ------ $$$ -----",
"--------- ----- ------ ------- $$@@ ----",
"-------- ------      - ....--  $@    ---",
"------- ------  ***** ++++..-- @@ ------",
"------- ----- ******* oooo+.-- @@@ -----",
"------- ----- * ** ** %%%oo.--- @@ -----",
"------- ----- ****** o%#%%o.--- @@ -----",
"-------- --- -      +o%##%o..-- @@ -----",
"---------   -- ----.+o%%#%o+.--- @ -----",
"--------------- ---.+oo%#%o+.---  @ ----",
"--------------- ---.++o%%%o..--- -  ----",
"---------------- --..+oooo..----- ------",
"---------------- ---.......------ ------",
"---------------  ----------------- -----",
"--------------- -----       ------ -----",
"-------------- -----  -----  ------ ----",
"-------------  ---- ---------  ---- ----",
"------------- ---- -----------  ---- ---",
"------------  --  -------------  --- ---",
"------------     ---------------  -- ---"
};
