/* XPM */
static char *result[] = {
/* columns rows colors chars-per-pixel */
"40 40 7 1 ",
"  c #6C6C6C",
". c gray43",
"X c #A84566",
"o c #C27D94",
"O c #F06292",
"+ c gray62",
"@ c white",
/* pixels */
"@OOOOOOOOOOOOOO+OOOOOOOOOOOOO+.+OOoOOOOO",
"+OXXXXXXXXXXXOO+OOXXXXXXXOOOO+.+OOXXXXOO",
"+OOOOOOOOOOOOOO+OOOOOOOOOOOOO+.+OOOOOOOO",
"+OOOXXXXXXOOOOO+OOOOXXXOOOOOO+.+OOOOXXXO",
"+OOOOOOOOOOOOOO+OOOOOOOOOOOOO+.+OOXXXXXX",
"+OOOOOOXXXXXXXO+OOOOOOXXXXXOO+.+OOOOOOOO",
"+OOOOOOOOOOOOOO+OOOOOOOOOOOOO+.+OOOOOOOO",
"++++++++++++++++++++++++++++++++++++++++",
"OOOO+ +OOOOOOOOOOOOOOO++OOOOOOOOOOOOOOO+",
"XOOO+ +OOOOOOOOOOOOOOO++OOOXXOOOOOOOOOO+",
"XXOO+ +OOXXXXXXXXXXXXO++OOOOOOOOXXXXXOO+",
"OOOO+ +OOOOOOOOOOOOOOO++OOXXOOOOOOOOOOO+",
"XXOO+ +OOOOOOXXOOOOOOO++OOOOOOOOOOOOOOO+",
"OOOO+ +OOOOOOOOOOOOOOO++OOOOOOOOOOOOOOO+",
"++++++++++++++++++++++++++++++++++++++++",
"+OOOOOOOOOOOOOO+OOOOOOOOOOOOO+.+OOOOOOOO",
"+OOOXXOOOOOOOOO+OOOOOXOOOOOOO+.+OOOOOOOO",
"+OXXXXXXXXXXOOO+OXXXXXXXXXOOO+.+OOXXXXXO",
"+OOOOOOOOOOOOOO+OOXXXXXOOOOOO+.+OOOOOOOO",
"+OOOXXXXXXXXOOO+OOOOOOOOOOOOO+.+OXXXXXOO",
"+OOOOOOOOOOOOOO+OOOOXXXXXXXOO+.+OOOOOOOO",
"+OOOOOOOOOOOOOO+OOOOOOOOOOOOO+.+OOOOOOOO",
"++++++++++++++++++++++++++++++++++++++++",
"OOOO+.+OOOOOOOOOOOOOOO++OOOOOOOOOOOOOOO+",
"XXOO+.+OOOOOOOOOOOOOOO++OOXXXXXXXXOOOOO+",
"OOOO+.+OOXXXXXXXOOOOOO++OOXXXXOOOOOOOOO+",
"XXXO+.+OOOOOOXXXXXOOOO++OOOOXXXXXXXXXOO+",
"XXXO+.+OOOOOOOOOOOXXXO++OOXXXXXXXXOOOOO+",
"OOOO+.+OOOOOOOOOOOOOOO++OOOOOOOOOOOOOOO+",
"++++++++++++++++++++++++++++++++++++++++",
"+OOOOOOOOOOOOOO+OOOOOOOOOOOOO+.+OOOOOOOO",
"+OXOOOOOOOOOOOO+OXXXXXXXXOOOO+.+OXXXXXXX",
"+OXXXXXXXXXOOOO+OOOOOOXXXXXXO+.+OOOXXXXO",
"+OOOOOOXXXXXOOO+OOOXXXXXOOOOO+.+OOXXXXXX",
"+OOOOOOOOOOOOOO+OXXXXXXXXXXOO+.+OOOOOOOO",
"+OOOXXXXXXOOOOO+OOXXXXXXOOOOO+.+OOXXXXXX",
"+OOOOOOOOOOOOOO+OOOOOOOOOOOOO+.+OOOOOOOO",
"++++++++++++++++++++++++++++++++++++++++",
"OOOO+++OOOOOOOOOOOOOOO++OOOOOOOOOOOOOOO+",
"OOXO+++OOOOOOXXXOOOOOO++OOXXXXXXOOOOOOO+"
};
