/* XPM */
static char *d4a3e064789f47dc8fd3f446fca1b6dasbIvU9cajbfRyeBH[] = {
/* columns rows colors chars-per-pixel */
"40 40 68 1 ",
"  c black",
". c #12190A",
"X c #151E0C",
"o c #04260F",
"O c #0D1C21",
"+ c #0B5821",
"@ c #3F5721",
"# c #3F5A22",
"$ c #0F6E29",
"% c #306325",
"& c #5A7F30",
"* c #139338",
"= c #5D8131",
"- c #628A34",
"; c #6EBC48",
": c #74BA6F",
"> c #6EB87D",
", c #70B978",
"< c #1DDB51",
"1 c #1EDD52",
"2 c #1FF05A",
"3 c #22E354",
"4 c #25E655",
"5 c #29E55E",
"6 c #23ED5A",
"7 c #26EB5E",
"8 c #29ED59",
"9 c #28ED5E",
"0 c #3DCE68",
"q c #34DA62",
"w c #3DDA68",
"e c #2DE061",
"r c #27EE61",
"t c #26EE66",
"y c #44D852",
"u c #47DF5B",
"i c #5BD851",
"p c #56D758",
"a c #58D95A",
"s c #79CB4D",
"d c #73C958",
"f c #76CC5C",
"g c #66CC5C",
"h c #5ED766",
"j c #48C97C",
"k c #8AC34A",
"l c #8BC34A",
"z c #86C561",
"x c #82C676",
"c c #34AE8A",
"v c #39B1BB",
"b c #61B391",
"n c #4188A5",
"m c #4790A8",
"M c #4796B5",
"N c #48A7BB",
"B c #4AA9B8",
"V c #2BD387",
"C c #31C798",
"Z c #39E59B",
"A c #7DCA8A",
"S c #75CDAD",
"D c #72CDBF",
"F c #3FA4CC",
"G c #00B7FF",
"H c #59CECA",
"J c #68D0E8",
"K c #63D3FF",
/* pixels */
".gqe<<OO n  O           gg   O          ",
"g0*<<*+n               ggg Ogggggg      ",
"gq2<<$c  K m O         gggOOgn gjg      ",
"0e<<*o  KKK n            g n    ggg     ",
"q<<<$  KKKKKn .           n  Kgngjgg ggg",
"5<<*o O KKK                 KKKgHggggggg",
"6<*$ c  &K z & .           KKKKKHggggg  ",
"2<$o   nnMlll &           O KKK g       ",
"2*o      zlDDl&      .   n   K Og       ",
"V$ +    . lll      .       nnM       KK ",
"Cv +   &   l .    .. &  .   gj2nH     KK",
"KKK      &&-       &         g22 g     K",
"KKK        . &&   &  l & .    g2 gg    K",
"KK                  lll &      22 g    K",
"K  KK              lllll&      22 g    K",
"   KK             . lll         2 gg   K",
"  FK             &   l .        22 g    ",
"  KK               &&-           2      ",
"  KK                 . &&        2 F    ",
"  KK                             2 F    ",
"  KK                            22 F    ",
"  KK          KKK          KK   22 F    ",
"   K    .      KK     .    KK   22 F  FF",
"      .             .  FF  K      FF  FF",
"     .. AKKJ  FFF  .. &  .K       F   F ",
"F     & KKKK FFF    &                FF ",
"FF   ,  lFAK.FF    &  l & .             ",
"FF   F lllK& F       lll &    KK F      ",
"F     lllll&        lllll&   KK FF     B",
"FK   .Flll         . lll     K  N     Xb",
"FKK &  Fl .       &   l .     .      X#>",
"FKKKK &&:           &&-      .. &  @Xb>d",
"FGKKK   . &&   KK     . &&    &     #>dp",
"FFGKK           KKKK         & Fl &X=;pw",
"FFNKK                  F      Flll hsau7",
"FFF K             FFFFF       lllllzau9t",
"F& .    F KKKK      FFF      . lllSfu8rZ",
"l &     FFGKKKK      FF     &  Fl xa241$",
"ll&     FFFGGKKK  KK          &,- ;y43*%",
"l        FFFGGKKKKKK            . i831$ "
};
